<svg width="135" height="44" viewBox="0 0 135 44" fill="none" xmlns="http://www.w3.org/2000/svg">
<g clip-path="url(#clip0_2_13)">
<path d="M9.9859 21.9856C4.47432 21.9856 0.000359941 26.4693 0.000359457 31.9928L0.000358582 42H9.9859C15.4975 42 19.9714 37.5163 19.9714 31.9928C19.9714 26.4693 15.4975 21.9856 9.9859 21.9856Z" fill="#57D9A6"/>
<path d="M29.9851 22.0144C35.4966 22.0144 39.9706 17.5307 39.9706 12.0072V2H29.9851C24.4735 2 19.9995 6.48367 19.9995 12.0072C19.9995 17.5307 24.4735 22.0144 29.9851 22.0144Z" fill="#57D9A6"/>
<path d="M20.0287 12.0072C20.0287 6.49958 15.5418 2.02881 10.0143 2.02881H0L4.36482e-07 12.0072C6.77401e-07 17.5149 4.48686 21.9857 10.0143 21.9857C15.5418 21.9857 20.0287 17.5149 20.0287 12.0072Z" fill="#57D9A6"/>
<path d="M19.9713 31.9641C19.9713 37.4717 24.4582 41.9425 29.9857 41.9425H40V31.9641C40 26.4564 35.5131 21.9857 29.9857 21.9857C24.4582 21.9857 19.9713 26.4564 19.9713 31.9641Z" fill="#57D9A6"/>
<path d="M65.384 34.408C63.9333 34.408 62.4827 34.1473 61.032 33.626C59.604 33.082 58.3233 32.2773 57.19 31.212L60.046 27.778C60.8393 28.458 61.712 29.0133 62.664 29.444C63.6387 29.8747 64.5907 30.09 65.52 30.09C66.5627 30.09 67.3333 29.8973 67.832 29.512C68.3533 29.1267 68.614 28.6053 68.614 27.948C68.614 27.608 68.5347 27.3133 68.376 27.064C68.24 26.8147 68.0247 26.5993 67.73 26.418C67.458 26.214 67.118 26.0327 66.71 25.874C66.3247 25.6927 65.894 25.5 65.418 25.296L62.528 24.072C61.9613 23.8453 61.406 23.5507 60.862 23.188C60.3407 22.8253 59.8647 22.406 59.434 21.93C59.026 21.4313 58.6973 20.8647 58.448 20.23C58.1987 19.5727 58.074 18.836 58.074 18.02C58.074 17.1133 58.2667 16.2633 58.652 15.47C59.0373 14.654 59.5813 13.9513 60.284 13.362C60.9867 12.75 61.814 12.274 62.766 11.934C63.7407 11.594 64.806 11.424 65.962 11.424C67.254 11.424 68.5233 11.6733 69.77 12.172C71.0393 12.6707 72.15 13.396 73.102 14.348L70.552 17.51C69.8267 16.9433 69.1013 16.5127 68.376 16.218C67.6507 15.9007 66.846 15.742 65.962 15.742C65.1007 15.742 64.4093 15.9233 63.888 16.286C63.3893 16.626 63.14 17.1133 63.14 17.748C63.14 18.088 63.2193 18.3827 63.378 18.632C63.5593 18.8587 63.7973 19.074 64.092 19.278C64.4093 19.4593 64.772 19.6407 65.18 19.822C65.588 19.9807 66.03 20.162 66.506 20.366L69.362 21.522C70.722 22.066 71.7873 22.814 72.558 23.766C73.3513 24.718 73.748 25.976 73.748 27.54C73.748 28.4693 73.5553 29.3533 73.17 30.192C72.8073 31.008 72.2633 31.7333 71.538 32.368C70.8353 32.98 69.9627 33.4787 68.92 33.864C67.8773 34.2267 66.6987 34.408 65.384 34.408ZM76.4226 34V10.166H81.2846V23.834H81.4206L86.7586 17.136H92.1986L86.2826 24.072L92.6406 34H87.2346L83.4266 27.438L81.2846 29.852V34H76.4226ZM94.3695 34V17.136H99.3675V34H94.3695ZM96.8515 14.654C96.0129 14.654 95.3215 14.416 94.7775 13.94C94.2335 13.4413 93.9615 12.8067 93.9615 12.036C93.9615 11.2653 94.2335 10.642 94.7775 10.166C95.3215 9.69 96.0129 9.452 96.8515 9.452C97.7129 9.452 98.4042 9.69 98.9255 10.166C99.4695 10.642 99.7415 11.2653 99.7415 12.036C99.7415 12.8067 99.4695 13.4413 98.9255 13.94C98.4042 14.416 97.7129 14.654 96.8515 14.654ZM107.676 34.408C106.815 34.408 106.089 34.272 105.5 34C104.911 33.728 104.435 33.354 104.072 32.878C103.732 32.3793 103.483 31.79 103.324 31.11C103.165 30.4073 103.086 29.6253 103.086 28.764V10.166H108.084V28.968C108.084 29.4893 108.175 29.852 108.356 30.056C108.56 30.26 108.764 30.362 108.968 30.362C109.081 30.362 109.172 30.362 109.24 30.362C109.331 30.362 109.444 30.3393 109.58 30.294L110.192 34C109.92 34.1133 109.569 34.204 109.138 34.272C108.73 34.3627 108.243 34.408 107.676 34.408ZM116.725 34.408C115.863 34.408 115.138 34.272 114.549 34C113.959 33.728 113.483 33.354 113.121 32.878C112.781 32.3793 112.531 31.79 112.373 31.11C112.214 30.4073 112.135 29.6253 112.135 28.764V10.166H117.133V28.968C117.133 29.4893 117.223 29.852 117.405 30.056C117.609 30.26 117.813 30.362 118.017 30.362C118.13 30.362 118.221 30.362 118.289 30.362C118.379 30.362 118.493 30.3393 118.629 30.294L119.241 34C118.969 34.1133 118.617 34.204 118.187 34.272C117.779 34.3627 117.291 34.408 116.725 34.408ZM120.265 34V31.314L127.337 21.046H121.047V17.136H133.559V19.788L126.487 30.09H133.797V34H120.265Z" fill="white"/>
</g>
<defs>
<clipPath id="clip0_2_13">
<rect width="135" height="44" fill="white"/>
</clipPath>
</defs>
</svg>
